{"title":"Spotlight.2015.DVDScr.XVID.AC3.HQ.Hive-CM8","uid":13076792,"size":1818956425,"categoryP":"video","categoryS":"movies","magnet":"?xt=urn:btih:3fb216ba6708caecdbf6723e756fa296835c50f4&amp;dn=Spotlight.2015.DVDScr.XVID.AC3.HQ.Hive-CM8&amp;tr=udp%3A%2F%2Ftracker.leechers-paradise.org%3A6969&amp;tr=udp%3A%2F%2Fzer0day.ch%3A1337&amp;tr=udp%3A%2F%2Fopen.demonii.com%3A1337&amp;tr=udp%3A%2F%2Ftracker.coppersurfer.tk%3A6969&amp;tr=udp%3A%2F%2Fexodus.desync.com%3A6969","seeders":43,"leechers":13,"uploader":"xxxlavalxxx","files":4,"time":1450858867,"description":"http://extraimago.com/image/5es\r\n \nhttp://www.imdb.com/title/tt1895587/\r\n\r\n\r\nThe true story of how the Boston Globe uncovered the massive scandal of child molestation and cover-up within the local Catholic Archdiocese, shaking the entire Catholic Church to its core.\r\n\r\nDirector: Tom McCarthy\r\nWriters: Josh Singer, Tom McCarthy\r\nStars: Mark Ruffalo, Michael Keaton, Rachel McAdams \r\nGenres: Biography | Drama | History | Thriller\r\nCountry: USA\r\nLanguage: English\r\n\r\n\r\nSpotlight.2015.DVDScr.XVID.AC3.HQ.Hive-CM8\r\n\r\nThx Hive\r\n\r\nCM8 Doing It Right The First Time \r\n\r\nSource: DVD-Screener Big THX m8\r\n\r\n\r\nNotes:\r\n\r\nDVDScreener 9 of 40\r\nwill do them all one after each other, 9th hot title\r\n\r\n\r\nEncode:\r\n\r\nquality was perfect on this.\r\nAll digital watermarks are removed.\r\nFixed brightness,contrast and rgb, and added sharpness.\r\n\r\ngot very nice\r\nenjoy\r\n\r\nps: i forgot to mention, plz support the producers and go to the cinema and watch them on a big screen too\r\nthx\r\n\r\nVideo: 720x400 @bitrate 1600 2pass\r\nAudio: English AC3 2.0 Stereo\r\nSample: yes included\r\n\r\n\r\n \nhttp://www.imdb.com/title/tt1895587/\r\n\r\n\r\n\r\nGeneral\r\nComplete name                  : Spotlight.2015.DVDScr.XVID.AC3.HQ.Hive-CM8.avi\r\nFormat                         : AVI\r\nFormat/Info                    : Audio Video Interleave\r\nFile size                      : 1.69 GiB\r\nDuration                       : 2h 8mn\r\nOverall bit rate               : 1 878 Kbps\r\nWriting application            : Nandub v1.0rc2\r\nWriting library                : Nandub build 1853/release\r\n\r\nVideo\r\nID                             : 0\r\nFormat                         : MPEG-4 Visual\r\nFormat profile                 : Advanced   \r\nFormat settings, BVOP          : 2\r\nFormat settings, QPel          : Yes\r\nFormat settings, GMC           : No warppoints\r\nFormat settings, Matrix        : Default (H.263)\r\nMuxing mode                    : Packed bitstream\r\nCodec ID                       : XVID\r\nCodec ID/Hint                  : XviD\r\nDuration                       : 2h 8mn\r\nBit rate                       : 1 610 Kbps\r\nWidth                          : 720 pixels\r\nHeight                         : 384 pixels\r\nDisplay aspect ratio           : 1.85:1\r\nFrame rate                     : 29.970 fps\r\nColor space                    : YUV\r\nChroma subsampling             : 4:2:0\r\nBit depth                      : 8 bits\r\nScan type                      : Progressive\r\nCompression mode               : Lossy\r\nBits/(Pixel*Frame)             : 0.194\r\nStream size                    : 1.45 GiB (86%)\r\nWriting library                : XviD 1.2.1 (UTC 2008-12-04)\r\n\r\nAudio\r\nID                             : 1\r\nFormat                         : AC-3\r\nFormat/Info                    : Audio Coding 3\r\nMode extension                 : CM (complete main)\r\nFormat settings, Endianness    : Big\r\nCodec ID                       : 2000\r\nDuration                       : 2h 8mn\r\nBit rate mode                  : Constant\r\nBit rate                       : 256 Kbps\r\nChannel(s)                     : 2 channels\r\nChannel positions              : Front: L R\r\nSampling rate                  : 48.0 KHz\r\nBit depth                      : 16 bits\r\nCompression mode               : Lossy\r\nDelay relative to video        : 14ms\r\nStream size                    : 235 MiB (14%)\r\nAlignment                      : Split accross interleaves\r\nInterleave, duration           : 33 ms (1.00 video frame)\r\nInterleave, preload duration   : 500 ms\r\n\r\n\r\nGreetz\r\n\r\nSugarB,iNCOMiNG,Izzy,MenaceIISociety,jiinx,SiMPLE,CherryBomb,bigguy79\r\nranbailey,ViSiON,UnKnOwN,YanKeeS,COPYxRIGHT,THC,VAiN,ACAB,DRs\r\nLKRG,Kingstoner,SiMPLE,TiTAN,cadance,PLAYNOW\r\nUnevano,BigVik,Rapeseed,SAFC,goldadvance,KaN1vE,Pinnz,Wayne,HiGH\r\nSeeN,jtr,Limey,ICONiK,TED,rkofan,mrtoke09\r\nMr Hive\r\n\r\nWONDER WHERE ALL THE OLD DDD FOLKS ARE DONT BE SCARED MESSAGE ME \r\n\r\nLOOKING FOR ANYTHING YOU WANT TO LOOK AND SOUND BETTER\r\n\r\nCOME FIND US WE DONT BITE \r\n\r\n  \r\n\r\n \nhttp://extraimago.com/image/5e7 \nhttp://extraimago.com/image/5ec \nhttp://extraimago.com/image/5e1 \nhttp://extraimago.com/image/5eE","torrent":{"xt":"urn:btih:3fb216ba6708caecdbf6723e756fa296835c50f4","amp;dn":"Spotlight.2015.DVDScr.XVID.AC3.HQ.Hive-CM8","amp;tr":["udp%3A%2F%2Ftracker.leechers-paradise.org%3A6969","udp%3A%2F%2Fzer0day.ch%3A1337","udp%3A%2F%2Fopen.demonii.com%3A1337","udp%3A%2F%2Ftracker.coppersurfer.tk%3A6969","udp%3A%2F%2Fexodus.desync.com%3A6969"],"infoHash":"3fb216ba6708caecdbf6723e756fa296835c50f4","infoHashBuffer":{"type":"Buffer","data":[63,178,22,186,103,8,202,236,219,246,114,62,117,111,162,150,131,92,80,244]},"announce":[],"urlList":[]}}